<svg
  width="512"
  height="512"
  viewBox="0 0 512 512"
  fill="none"
  xmlns="http://www.w3.org/2000/svg"
>
  <mask
    id="mask0"
    mask-type="alpha"
    maskUnits="userSpaceOnUse"
    x="0"
    y="0"
    width="512"
    height="512"
  >
    <rect width="512" height="512" rx="64" fill="#343B57" />
  </mask>
  <g mask="url(#mask0)">
    <rect width="512" height="512" rx="64" fill="#343B57" />
    <g filter="url(#filter0_f)">
      <circle cx="38" cy="38" r="138" fill="white" />
    </g>
    <circle cx="409" cy="462" r="206" fill="#9DCE6C" />
    <g filter="url(#filter1_b)">
      <rect
        width="512"
        height="512"
        rx="64"
        fill="#343B57"
        fill-opacity="0.86"
      />
    </g>
    <g filter="url(#filter2_d)">
      <path
        fill-rule="evenodd"
        clip-rule="evenodd"
        d="M321.764 310.647C312.949 301.836 312.949 287.575 321.764 278.764L360.537 239.99L360.55 239.978C372.406 228.225 378.911 212.572 378.911 195.737C378.911 161.205 350.796 133.092 316.263 133.092C299.421 133.092 283.759 139.601 272.07 151.405L272.057 151.418L233.235 190.24C224.424 199.051 210.165 199.051 201.355 190.24L201.353 190.239C192.545 181.426 192.545 167.172 201.353 158.359L240.103 119.609C260.281 99.2341 287.377 88 316.263 88C375.677 88 424 136.324 424 195.737C424 224.629 412.763 251.722 392.335 271.955C392.331 271.96 392.326 271.965 392.321 271.969L353.621 310.669L353.613 310.677C349.232 315.034 343.474 317.253 337.703 317.253C331.936 317.253 326.155 315.037 321.764 310.647Z"
        fill="url(#paint0_linear)"
      />
      <path
        fill-rule="evenodd"
        clip-rule="evenodd"
        d="M271.911 392.38C271.906 392.384 271.902 392.389 271.897 392.394C251.719 412.766 224.626 424 195.737 424C136.324 424 88 375.677 88 316.263C88 287.374 99.2366 260.279 119.667 240.047L158.373 201.339C167.184 192.529 181.443 192.528 190.254 201.339L190.255 201.34C199.064 210.153 199.064 224.408 190.255 233.22L190.254 233.222L151.479 271.997L151.466 272.009C139.596 283.776 133.092 299.429 133.092 316.263C133.092 350.796 161.205 378.911 195.737 378.911C212.579 378.911 228.241 372.402 239.93 360.598L239.943 360.584L278.765 321.763C287.576 312.949 301.836 312.949 310.647 321.764C319.459 330.575 319.458 344.834 310.644 353.644L271.911 392.38Z"
        fill="url(#paint1_linear)"
      />
      <path
        fill-rule="evenodd"
        clip-rule="evenodd"
        d="M197.818 336.727C192.055 336.727 186.271 334.517 181.877 330.123C173.067 321.312 173.067 307.053 181.877 298.243L298.242 181.878C307.053 173.067 321.312 173.067 330.122 181.878C338.934 190.69 338.937 204.946 330.122 213.758L213.76 330.12C209.366 334.518 203.578 336.727 197.818 336.727Z"
        fill="url(#paint2_linear)"
      />
    </g>
  </g>
  <defs>
    <filter
      id="filter0_f"
      x="-356"
      y="-356"
      width="788"
      height="788"
      filterUnits="userSpaceOnUse"
      color-interpolation-filters="sRGB"
    >
      <feFlood flood-opacity="0" result="BackgroundImageFix" />
      <feBlend
        mode="normal"
        in="SourceGraphic"
        in2="BackgroundImageFix"
        result="shape"
      />
      <feGaussianBlur stdDeviation="128" result="effect1_foregroundBlur" />
    </filter>
    <filter
      id="filter1_b"
      x="-128"
      y="-128"
      width="768"
      height="768"
      filterUnits="userSpaceOnUse"
      color-interpolation-filters="sRGB"
    >
      <feFlood flood-opacity="0" result="BackgroundImageFix" />
      <feGaussianBlur in="BackgroundImage" stdDeviation="64" />
      <feComposite
        in2="SourceAlpha"
        operator="in"
        result="effect1_backgroundBlur"
      />
      <feBlend
        mode="normal"
        in="SourceGraphic"
        in2="effect1_backgroundBlur"
        result="shape"
      />
    </filter>
    <filter
      id="filter2_d"
      x="64"
      y="68"
      width="384"
      height="384"
      filterUnits="userSpaceOnUse"
      color-interpolation-filters="sRGB"
    >
      <feFlood flood-opacity="0" result="BackgroundImageFix" />
      <feColorMatrix
        in="SourceAlpha"
        type="matrix"
        values="0 0 0 0 0 0 0 0 0 0 0 0 0 0 0 0 0 0 127 0"
        result="hardAlpha"
      />
      <feOffset dy="4" />
      <feGaussianBlur stdDeviation="12" />
      <feComposite in2="hardAlpha" operator="out" />
      <feColorMatrix
        type="matrix"
        values="0 0 0 0 0.615686 0 0 0 0 0.807843 0 0 0 0 0.423529 0 0 0 0.12 0"
      />
      <feBlend
        mode="normal"
        in2="BackgroundImageFix"
        result="effect1_dropShadow"
      />
      <feBlend
        mode="normal"
        in="SourceGraphic"
        in2="effect1_dropShadow"
        result="shape"
      />
    </filter>
    <linearGradient
      id="paint0_linear"
      x1="345"
      y1="53.5"
      x2="194"
      y2="455.5"
      gradientUnits="userSpaceOnUse"
    >
      <stop stop-color="#E6FCA8" />
      <stop offset="1" stop-color="#97FD8E" />
    </linearGradient>
    <linearGradient
      id="paint1_linear"
      x1="345"
      y1="53.5"
      x2="194"
      y2="455.5"
      gradientUnits="userSpaceOnUse"
    >
      <stop stop-color="#E6FCA8" />
      <stop offset="1" stop-color="#97FD8E" />
    </linearGradient>
    <linearGradient
      id="paint2_linear"
      x1="345"
      y1="53.5"
      x2="194"
      y2="455.5"
      gradientUnits="userSpaceOnUse"
    >
      <stop stop-color="#E6FCA8" />
      <stop offset="1" stop-color="#97FD8E" />
    </linearGradient>
  </defs>
</svg>
