<svg
  width="512"
  height="512"
  viewBox="0 0 512 512"
  fill="none"
  xmlns="http://www.w3.org/2000/svg"
>
  <g clip-path="url(#clip0)">
    <path
      d="M495.75 362.182C485.287 372.622 471.107 378.455 456.348 378.432H55.653C40.894 378.454 26.714 372.622 16.251 362.182L197.9 180.533L228.62 202.794C244.893 214.815 267.109 214.815 283.382 202.794L314.102 180.533L495.75 362.182Z"
      fill="#F59E0B"
    />
    <path
      d="M501.315 45.187L314.101 180.533L283.381 202.794C267.108 214.815 244.892 214.815 228.619 202.794L197.899 180.533L10.463 45.41C20.881 30.829 37.733 22.192 55.653 22.259H456.349C474.135 22.281 490.853 30.784 501.315 45.187Z"
      fill="#FCD34D"
    />
    <path
      d="M10.463 45.41L197.9 180.533L16.251 362.182C5.81003 351.719 -0.0219731 337.539 2.6856e-05 322.78V77.911C-0.0439731 66.246 3.60703 54.848 10.463 45.41Z"
      fill="#FBBF24"
    />
    <path
      d="M512 77.911V322.781C512.022 337.54 506.19 351.72 495.75 362.183L314.101 180.533L501.315 45.187C508.261 54.67 512 66.135 512 77.911Z"
      fill="#FBBF24"
    />
    <path
      d="M309.805 312.407C289.258 308.934 268.489 317.238 256 333.911C243.512 317.238 222.742 308.934 202.195 312.407C174.458 318.017 154.846 342.86 155.826 371.131C155.781 385.89 161.636 400.07 172.121 410.488L248.12 486.487C252.461 490.828 259.518 490.828 263.858 486.487L339.857 410.488C350.587 399.669 356.486 384.955 356.152 369.706C356.62 341.902 337.097 317.772 309.805 312.407Z"
      fill="#EF4444"
    />
    <path
      d="M456.348 378.432H389.565C383.421 378.432 378.435 373.446 378.435 367.302C378.435 361.158 383.421 356.172 389.565 356.172H456.348C474.758 356.172 489.739 341.19 489.739 322.781V77.911C489.739 59.501 474.757 44.52 456.348 44.52H55.653C37.243 44.52 22.262 59.502 22.262 77.911V322.781C22.262 341.191 37.244 356.172 55.653 356.172H122.436C128.58 356.172 133.566 361.136 133.566 367.302C133.566 373.468 128.58 378.432 122.436 378.432H55.653C24.977 378.432 0 353.478 0 322.78V77.911C0 47.213 24.977 22.259 55.652 22.259H456.348C487.046 22.259 512 47.213 512 77.911V322.781C512 353.478 487.046 378.432 456.348 378.432Z"
      fill="#111827"
    />
    <path
      d="M256.023 222.94C244.113 222.94 232.204 219.222 222.031 211.787L49.152 86.926C44.143 83.32 43.03 76.374 46.637 71.388C50.221 66.379 57.166 65.266 62.175 68.873L235.142 193.779C247.675 202.928 264.393 202.928 276.837 193.824L449.826 68.874C454.812 65.245 461.758 66.359 465.364 71.367C468.97 76.353 467.835 83.321 462.871 86.905L289.904 211.81C279.797 219.223 267.91 222.94 256.023 222.94Z"
      fill="#111827"
    />
    <path
      d="M55.653 333.911C52.804 333.911 49.954 332.82 47.773 330.661C43.432 326.32 43.432 319.263 47.773 314.923L159.077 203.619C163.418 199.278 170.475 199.278 174.815 203.619C179.156 207.96 179.156 215.017 174.815 219.357L63.511 330.661C61.351 332.82 58.502 333.911 55.653 333.911Z"
      fill="#111827"
    />
    <path
      d="M456.348 333.911C453.499 333.911 450.649 332.82 448.468 330.661L337.164 219.356C332.823 215.015 332.823 207.958 337.164 203.618C341.505 199.277 348.562 199.277 352.902 203.618L464.206 314.922C468.547 319.263 468.547 326.32 464.206 330.66C462.047 332.82 459.198 333.911 456.348 333.911Z"
      fill="#111827"
    />
    <path
      d="M256 489.737C253.151 489.737 250.301 488.646 248.12 486.487L172.121 410.488C161.614 399.959 155.826 386.001 155.826 371.131C155.203 342.125 174.547 317.95 201.795 312.474C205.201 311.895 208.273 311.561 211.59 311.628C226.371 311.628 240.329 317.438 250.836 327.945C252.684 329.793 254.42 331.774 255.956 333.844C259.384 329.281 263.525 325.251 268.311 321.868C280.443 313.275 295.269 309.936 309.85 312.407C337.431 317.95 356.754 342.125 356.153 369.929C356.153 386.001 350.365 399.959 339.858 410.466L263.859 486.465C261.699 488.646 258.85 489.737 256 489.737ZM211.234 333.888C209.386 333.888 207.65 334.044 205.914 334.355C189.53 337.65 177.709 352.431 178.088 369.438C178.088 379.901 181.65 388.493 187.861 394.726L256 462.868L324.141 394.727C330.352 388.516 333.914 379.901 333.914 371.131C334.315 352.432 322.472 337.651 305.799 334.312C297.251 332.843 288.458 334.891 281.201 340.033C273.922 345.175 269.091 352.878 267.6 361.671C267.288 363.519 267.133 365.411 267.133 367.303C267.133 373.447 262.147 378.433 256.003 378.433C249.859 378.433 244.873 373.447 244.873 367.303C244.873 358.376 241.423 349.984 235.123 343.662C228.753 337.294 221.229 333.977 211.234 333.888Z"
      fill="#111827"
    />
  </g>
  <defs>
    <clipPath id="clip0">
      <rect width="512" height="512" fill="white" />
    </clipPath>
  </defs>
</svg>
