<svg
  width="513"
  height="513"
  viewBox="0 0 513 513"
  fill="none"
  xmlns="http://www.w3.org/2000/svg"
>
  <g clip-path="url(#clip0)">
    <path
      d="M338.207 344.575L274.21 280.471C270.05 276.29 263.288 276.29 259.128 280.45C257.123 282.455 255.992 285.164 255.992 288.002V437.436C255.992 442.022 258.936 446.097 263.288 447.548C264.376 447.911 265.507 448.103 266.659 448.103C270.008 448.103 273.187 446.524 275.192 443.836L339.189 358.506C342.367 354.26 341.94 348.33 338.207 344.575Z"
      fill="#C4B5FD"
    />
    <path
      d="M291.361 320.661L227.364 299.329C221.775 297.452 215.738 300.481 213.861 306.07C213.136 308.267 213.136 310.635 213.861 312.811L256.526 440.806C257.977 445.158 262.072 448.102 266.659 448.102H267.32C272.141 447.803 276.152 444.305 277.112 439.569L298.444 332.907C299.51 327.616 296.481 322.368 291.361 320.661Z"
      fill="#8B5CF6"
    />
    <path
      d="M507.416 23.479C504.024 21.111 499.544 20.919 495.96 22.988L90.644 257.645C85.546 260.61 83.818 267.117 86.761 272.215C88.062 274.476 90.153 276.162 92.627 276.993L284.192 340.862L433.092 404.689C438.51 407.014 444.782 404.497 447.086 399.079C447.406 398.332 447.641 397.543 447.79 396.732L511.787 34.08C512.515 29.985 510.808 25.868 507.416 23.479Z"
      fill="#A78BFA"
    />
    <path
      d="M509.997 38.412C513.432 33.634 512.344 26.956 507.565 23.522C503.298 20.45 497.453 20.941 493.763 24.674L215.61 318.037L295.884 345.769L509.997 38.412Z"
      fill="#8B5CF6"
    />
    <path
      d="M26.071 420.263C23.383 420.263 20.802 419.26 18.839 417.447C13.527 412.562 8.279 407.527 3.138 402.365C-1.043 398.205 -1.043 391.443 3.117 387.262C7.277 383.081 14.039 383.081 18.22 387.262C23.169 392.211 28.204 397.054 33.302 401.747C37.632 405.736 37.91 412.477 33.942 416.808C31.916 419.004 29.057 420.263 26.071 420.263Z"
      fill="#8B5CF6"
    />
    <path
      d="M171.388 490.553C161.106 490.51 150.866 489.465 140.797 487.374C134.973 486.414 131.048 480.932 131.987 475.129C132.926 469.327 138.429 465.38 144.232 466.319C144.509 466.362 144.787 466.426 145.064 466.49C153.746 468.282 162.578 469.199 171.452 469.221H171.516H176.316C181.884 468.688 186.812 472.762 187.345 478.33C187.388 478.714 187.388 479.098 187.388 479.482C187.601 485.37 183.015 490.319 177.127 490.532H171.559L171.388 490.553ZM94.953 470.138C93.246 470.138 91.561 469.733 90.047 468.943C79.551 463.461 69.44 457.295 59.734 450.533C54.998 447.013 54.017 440.336 57.537 435.6C60.886 431.099 67.179 429.947 71.894 433.019C80.832 439.312 90.176 445.008 99.84 450.085C105.066 452.794 107.114 459.237 104.405 464.463C102.57 468.004 98.923 470.223 94.933 470.223L94.953 470.138Z"
      fill="#8B5CF6"
    />
    <path
      d="M226.233 479.119C220.345 479.162 215.524 474.426 215.481 468.538C215.438 464.229 217.998 460.325 221.966 458.64C228.11 456.016 234.062 452.987 239.821 449.595C244.962 446.736 251.469 448.571 254.327 453.712C257.1 458.682 255.479 464.933 250.658 467.962C244.109 471.823 237.325 475.279 230.35 478.266C229.049 478.82 227.641 479.097 226.233 479.119Z"
      fill="#8B5CF6"
    />
    <path
      d="M266.658 448.101C262.093 448.101 257.997 445.178 256.546 440.805L215.566 317.866L92.627 276.886C88.638 275.542 85.822 272.001 85.395 267.841C84.968 263.681 87.038 259.628 90.664 257.537L495.982 22.882C499.609 20.813 504.088 21.005 507.438 23.373C510.851 25.741 512.558 29.879 511.832 33.975L447.835 396.627C447.28 399.827 445.275 402.6 442.395 404.157C439.558 405.693 436.145 405.864 433.115 404.605L295.862 345.77L277.111 439.547C276.172 444.304 272.141 447.824 267.319 448.101C267.106 448.101 266.872 448.101 266.658 448.101ZM121.832 264.152L227.364 299.308C230.543 300.375 233.06 302.871 234.105 306.049L264.077 395.944L277.538 328.683C278.157 325.526 280.183 322.838 283.042 321.323C285.901 319.808 289.25 319.723 292.215 320.939L429.169 379.646L486.852 52.812L121.832 264.152Z"
      fill="#111827"
    />
    <path
      d="M287.991 341.439C285.836 341.439 283.682 340.799 281.783 339.455C277.005 336.02 275.895 329.365 279.308 324.565L417.734 130.802L231.523 316.992C227.363 321.152 220.601 321.152 216.441 316.992C212.281 312.832 212.281 306.07 216.441 301.91L493.763 24.588C497.709 20.641 503.96 20.386 508.205 23.991C512.429 27.575 513.197 33.804 509.997 38.326L296.673 336.981C294.604 339.882 291.297 341.439 287.991 341.439Z"
      fill="#111827"
    />
    <path
      d="M266.658 448.101C264.439 448.101 262.2 447.418 260.28 445.968C255.566 442.427 254.606 435.75 258.147 431.035L322.144 345.705C325.707 340.991 332.405 340.052 337.077 343.55C341.791 347.091 342.751 353.768 339.232 358.483L275.235 443.813C273.101 446.608 269.901 448.101 266.658 448.101Z"
      fill="#111827"
    />
    <path
      d="M26.071 420.22C23.49 420.22 20.887 419.281 18.839 417.383C13.506 412.498 8.279 407.442 3.138 402.301C-1.043 398.162 -1.043 391.379 3.117 387.219C7.277 383.059 14.039 383.059 18.199 387.219C23.148 392.147 28.183 396.989 33.302 401.725C37.632 405.714 37.91 412.455 33.921 416.786C31.809 419.068 28.951 420.22 26.071 420.22Z"
      fill="#111827"
    />
    <path
      d="M171.985 489.742C161.553 489.742 151.079 488.825 140.84 487.033C135.038 486.03 131.155 480.484 132.158 474.703C133.161 468.922 138.664 464.847 144.509 466.042C153.554 467.621 162.791 468.41 171.985 468.41L176.315 468.346C181.925 468.623 187.109 472.826 187.28 478.714C187.451 484.602 182.8 489.508 176.912 489.679L171.985 489.742ZM94.399 470.97C92.756 470.97 91.092 470.586 89.514 469.775C78.762 464.229 68.566 457.616 59.179 450.064C54.593 446.373 53.846 439.675 57.536 435.067C61.227 430.481 67.946 429.755 72.533 433.446C80.81 440.102 89.812 445.925 99.284 450.811C104.532 453.52 106.58 459.941 103.892 465.189C101.993 468.858 98.26 470.97 94.399 470.97Z"
      fill="#111827"
    />
    <path
      d="M226.233 479.119C222.094 479.119 218.169 476.708 216.441 472.655C214.116 467.237 216.633 460.965 222.051 458.64C228.195 456.016 234.168 452.966 239.928 449.574C244.984 446.587 251.512 448.251 254.541 453.35C257.528 458.406 255.842 464.955 250.765 467.963C244.173 471.845 237.347 475.323 230.457 478.267C229.07 478.841 227.641 479.119 226.233 479.119Z"
      fill="#111827"
    />
  </g>
  <defs>
    <clipPath id="clip0">
      <rect width="512.002" height="512.002" fill="white" />
    </clipPath>
  </defs>
</svg>
